HIERARCHY
ROOT hip
{
	OFFSET 0.00000 0.00000 0.00000
	CHANNELS 6 Xposition Yposition Zposition Zrotation Yrotation Xrotation 
	JOINT rightuplegdummy
	{
		OFFSET 0 0 0
		CHANNELS 3 Zrotation Yrotation Xrotation
		JOINT rightupleg
		{
			OFFSET -3.52197 -3.41223 0.04002
			CHANNELS 3 Zrotation Yrotation Xrotation
			JOINT rightleg
			{
				OFFSET 0.00006 -17.42390 1.60435
				CHANNELS 3 Zrotation Yrotation Xrotation
				JOINT rightfoot
				{
					OFFSET 0.06153 -16.50078 -1.63901
					CHANNELS 3 Zrotation Yrotation Xrotation
					JOINT righttoes
					{
						OFFSET 0.00298 -1.73825 3.34613
						CHANNELS 3 Zrotation Yrotation Xrotation
						End Site
						{
							OFFSET 0.00480 -0.05416 3.85043
						}
					}
				}
			}
		}
	}
	JOINT spinedummy
	{
		OFFSET 0 0 0
		CHANNELS 3 Zrotation Yrotation Xrotation
		JOINT spine
		{
			OFFSET 0.00000 4.68130 0.00000
			CHANNELS 3 Zrotation Yrotation Xrotation
			JOINT spine1
			{
				OFFSET -0.00000 10.10138 0.05002
				CHANNELS 3 Zrotation Yrotation Xrotation
				JOINT headdummy
				{
					OFFSET 0 0 0
					CHANNELS 3 Zrotation Yrotation Xrotation
					JOINT head
					{
						OFFSET -0.00000 3.43865 0.00438
						CHANNELS 3 Zrotation Yrotation Xrotation
						End Site
						{
							OFFSET -0.11417 5.02924 0.98962
						}
					}
				}
				JOINT leftshoulder1dummy
				{
					OFFSET 0 0 0
					CHANNELS 3 Zrotation Yrotation Xrotation
					JOINT leftshoulder1
					{
						OFFSET 3.53937 -0.14262 -0.08662
						CHANNELS 3 Zrotation Yrotation Xrotation
						JOINT leftarm
						{
							OFFSET 4.04833 -0.00133 0.12681
							CHANNELS 3 Zrotation Yrotation Xrotation
							JOINT leftforearm
							{
								OFFSET 10.33880 -0.01036 -0.55515
								CHANNELS 3 Zrotation Yrotation Xrotation
								JOINT lefthand
								{
									OFFSET 8.69677 0.07543 0.40060
									CHANNELS 3 Zrotation Yrotation Xrotation
									End Site
									{
										OFFSET 5.28377 -0.21905 0.59205
									}
								}
							}
						}
					}
				}
				JOINT rightshoulderdummy
				{
					OFFSET 0 0 0
					CHANNELS 3 Zrotation Yrotation Xrotation
					JOINT rightshoulder
					{
						OFFSET -3.53937 -0.14262 -0.08660
						CHANNELS 3 Zrotation Yrotation Xrotation
						JOINT rightarm
						{
							OFFSET -4.04833 -0.00133 0.12683
							CHANNELS 3 Zrotation Yrotation Xrotation
							JOINT rightforearm
							{
								OFFSET -10.37987 -0.01039 -0.55511
								CHANNELS 3 Zrotation Yrotation Xrotation
								JOINT righthand
								{
									OFFSET -8.67398 0.07538 0.40058
									CHANNELS 3 Zrotation Yrotation Xrotation
									End Site
									{
										OFFSET -5.24810 -0.21916 0.59204
									}
								}
							}
						}
					}
				}
			}
		}
	}
	JOINT leftuplegdummy
	{
		OFFSET 0 0 0
		CHANNELS 3 Zrotation Yrotation Xrotation
		JOINT leftupleg
		{
			OFFSET 3.52197 -3.41223 0.04002
			CHANNELS 3 Zrotation Yrotation Xrotation
			JOINT leftleg
			{
				OFFSET -0.00012 -17.42399 1.60337
				CHANNELS 3 Zrotation Yrotation Xrotation
				JOINT leftfoot
				{
					OFFSET -0.09972 -16.50070 -1.63802
					CHANNELS 3 Zrotation Yrotation Xrotation
					JOINT lefttoes
					{
						OFFSET -0.01575 -1.73823 3.34611
						CHANNELS 3 Zrotation Yrotation Xrotation
						End Site
						{
							OFFSET 0.03150 -0.01868 3.85031
						}
					}
				}
			}
		}
	}
}
MOTION
Frames: 6
Frame Time: 0.033333
-2.4042 41.2237 31.8777 -179.2580 56.9860 -178.0870 0.0000 -0.0000 0.0000 -12.2564 -12.9066 2.6330 3.3279 5.8141 11.9788 17.2620 -2.7671 6.9033 0.0000 0.0000 -0.0000 0.0000 -0.0000 0.0000 0.9912 2.5029 3.4777 -2.2062 3.2730 11.9900 -0.0000 -0.0000 -0.0000 -17.8680 39.2105 -11.6206 -0.0000 -0.0000 -0.0000 -20.7776 -2.9180 1.7457 -36.8803 0.8782 -1.5692 -179.5006 -87.4458 -171.4326 10.8385 4.7664 -0.0919 -0.0000 -0.0000 -0.0000 24.3247 4.4772 2.4364 41.4827 1.7581 14.7001 177.4944 65.7034 164.0261 -6.8811 -10.2382 0.2120 0.0000 -0.0000 0.0000 11.2831 17.4601 -11.4481 -0.3032 1.1032 15.6064 -8.7089 1.5526 9.4769 0.0000 0.0000 0.0000
-2.4322 41.6225 32.0507 -179.7940 58.2947 -178.8460 0.0000 -0.0000 0.0000 -13.2458 -16.2041 1.8235 3.5436 7.2022 13.6292 16.7784 -3.1705 10.2083 0.0000 0.0000 -0.0000 0.0000 -0.0000 0.0000 2.0251 2.9105 3.0140 -4.2723 4.3968 14.2535 -0.0000 -0.0000 -0.0000 -18.5760 38.3852 -14.7446 -0.0000 -0.0000 -0.0000 -21.0381 -2.9741 1.7768 -43.0335 5.1340 0.3002 179.9689 -80.4215 -170.2403 12.0590 5.3301 -0.0396 -0.0000 -0.0000 -0.0000 23.4620 4.2134 2.2928 43.3258 -1.7135 16.9611 178.7651 58.5066 174.2517 2.2890 -7.1997 -0.0914 0.0000 -0.0000 0.0000 8.6892 21.5140 -10.2155 -2.7961 -6.4440 20.7621 -11.1362 2.4120 13.8637 0.0000 0.0000 0.0000
-2.5140 41.4730 32.3439 179.3370 58.6234 179.4280 0.0000 -0.0000 0.0000 -14.6529 -18.7636 1.8339 2.3451 6.0187 17.1518 13.1338 -2.4639 10.1475 0.0000 0.0000 -0.0000 0.0000 -0.0000 0.0000 1.7961 2.8506 4.0534 -5.5696 4.6303 14.9594 -0.0000 -0.0000 -0.0000 -19.0959 38.4733 -15.6178 -0.0000 -0.0000 -0.0000 -20.7644 -3.0456 1.7796 -46.3062 6.7028 0.7774 -179.8388 -73.9038 -171.8808 12.0399 6.0450 0.0290 -0.0000 -0.0000 -0.0000 22.6488 3.9326 2.1521 43.8229 0.1708 18.0302 179.0425 53.4693 176.0161 4.5643 -6.2246 -0.0918 0.0000 -0.0000 0.0000 7.8746 19.8861 -7.7818 -3.0959 -6.6343 21.8481 -10.8469 2.2384 12.7175 0.0000 0.0000 0.0000
-2.6046 40.6468 32.6436 -179.9380 58.0766 179.7210 0.0000 -0.0000 0.0000 -15.5800 -17.2297 1.5225 1.8812 4.0865 21.3308 13.6814 -2.0631 6.0815 0.0000 0.0000 -0.0000 0.0000 -0.0000 0.0000 2.2953 2.6211 5.1669 -5.7993 4.3967 13.6682 -0.0000 -0.0000 -0.0000 -18.4883 38.8098 -13.7503 -0.0000 -0.0000 -0.0000 -20.5596 -3.0627 1.7717 -45.5122 5.2788 -0.5480 -179.7174 -69.2126 -173.3375 8.7392 6.2219 0.0201 -0.0000 -0.0000 -0.0000 22.3439 3.8874 2.1177 43.3525 4.5628 16.0048 178.6643 50.9063 169.6018 2.5961 -7.5681 -0.1187 0.0000 -0.0000 0.0000 7.9413 16.6840 -7.1768 -1.2329 -2.9649 22.7781 -8.7915 1.1945 4.4315 0.0000 0.0000 0.0000
-2.7134 39.2266 33.1430 -179.3120 56.8392 -179.4610 0.0000 -0.0000 0.0000 -15.9812 -15.7273 -0.0079 3.8052 6.1994 27.1341 17.7985 -1.1247 -4.0927 0.0000 0.0000 -0.0000 0.0000 -0.0000 0.0000 2.1187 2.4355 5.9835 -5.5642 3.9737 12.3618 -0.0000 -0.0000 -0.0000 -17.0069 38.2339 -12.2053 -0.0000 -0.0000 -0.0000 -20.1032 -2.9546 1.7150 -41.0079 -0.4445 -3.8222 -179.8162 -66.3319 -173.6247 7.8902 5.8674 -0.0096 -0.0000 -0.0000 -0.0000 22.1734 3.9378 2.1202 42.1037 12.0635 10.0445 178.3849 51.3008 164.5842 -0.5399 -7.3255 -0.0563 0.0000 -0.0000 0.0000 8.1985 15.1014 -11.0560 0.0130 -0.5137 29.4104 -7.7034 0.4018 -5.8420 0.0000 0.0000 0.0000
-2.9283 37.6902 33.8024 -179.0870 55.8236 -179.7090 0.0000 -0.0000 0.0000 -15.9253 -15.9402 -1.8387 6.1214 7.7444 33.8501 17.3346 0.5426 -15.3870 0.0000 0.0000 -0.0000 0.0000 -0.0000 0.0000 1.3621 2.2944 6.4692 -4.5951 3.4327 13.8617 -0.0000 -0.0000 -0.0000 -17.7935 37.0048 -13.7708 -0.0000 -0.0000 -0.0000 -19.6952 -2.6094 1.6001 -34.0115 -10.2469 -10.1644 179.7153 -70.5630 -172.9682 10.4560 5.8972 0.0091 -0.0000 -0.0000 -0.0000 22.2180 3.9140 2.1165 39.4201 25.6111 2.8555 178.0789 58.8663 163.9269 -3.5027 -6.3172 -0.0251 0.0000 -0.0000 0.0000 8.9066 15.5049 -16.4171 -0.2034 -0.6156 39.2845 -7.4781 -0.0070 -12.6054 0.0000 0.0000 0.0000
